<svg width="102" height="29" viewBox="0 0 102 29" fill="none" xmlns="http://www.w3.org/2000/svg">
<g clip-path="url(#clip0_18524_3960)">
<path d="M42.1292 20.7038C40.7837 22.0276 39.3677 22.543 37.6478 22.543C34.2731 22.543 31.4626 20.5139 31.4626 16.385C31.4626 12.2562 34.2731 10.2271 37.6478 10.2271C39.3026 10.2271 40.5721 10.6991 41.8471 11.9469L40.0296 13.8567C39.3459 13.2436 38.4941 12.9344 37.6912 12.9344C35.7542 12.9344 34.3382 14.3505 34.3382 16.3796C34.3382 18.5986 35.8465 19.776 37.6423 19.776C38.5647 19.776 39.4816 19.5156 40.1923 18.8102L42.1292 20.7038Z" fill="#222222"/>
<path d="M54.4939 16.3851C54.4939 19.7381 52.2044 22.4508 48.4282 22.4508C44.652 22.4508 42.3842 19.7381 42.3842 16.3851C42.3842 13.0592 44.6954 10.3193 48.4011 10.3193C52.1121 10.3193 54.4939 13.0538 54.4939 16.3851ZM45.2651 16.3851C45.2651 18.1538 46.3285 19.8086 48.4282 19.8086C50.5279 19.8086 51.5913 18.1538 51.5913 16.3851C51.5913 14.6381 50.3651 12.9399 48.4282 12.9399C46.3557 12.9345 45.2651 14.6381 45.2651 16.3851Z" fill="#222222"/>
<path d="M63.5059 22.1907V15.9622C63.5059 14.4267 62.7029 13.0378 61.1241 13.0378C59.567 13.0378 58.6446 14.4322 58.6446 15.9622V22.1907H55.7637V10.5312H58.4276L58.6392 11.9473C59.2523 10.7699 60.5978 10.3413 61.7101 10.3413C63.1044 10.3413 64.4934 10.9056 65.1553 12.5115C66.1915 10.8567 67.5371 10.3847 69.0508 10.3847C72.3549 10.3847 73.9826 12.4139 73.9826 15.9079V22.1853H71.1016V15.9079C71.1016 14.3725 70.4669 13.0758 68.9043 13.0758C67.3472 13.0758 66.3814 14.4213 66.3814 15.9567V22.1853H63.5059V22.1907Z" fill="#222222"/>
<path d="M79.0772 5.69145V12.1316C79.7609 10.9271 81.6761 10.2652 82.9022 10.2652C86.2986 10.2652 88.8269 12.3432 88.8269 16.3526C88.8269 20.1776 86.2552 22.4401 82.8317 22.4401C81.4157 22.4401 79.9779 21.9681 79.0772 20.5737L78.8873 22.1796H76.1963V5.68604H79.0772V5.69145ZM79.2671 16.358C79.2671 18.4577 80.8243 19.7816 82.6418 19.7816C84.4811 19.7816 85.946 18.3872 85.946 16.358C85.946 14.2584 84.4811 12.9617 82.6418 12.9617C80.8243 12.9617 79.2671 14.3289 79.2671 16.358Z" fill="#222222"/>
<path d="M101.799 16.3851C101.799 19.7381 99.5099 22.4508 95.7337 22.4508C91.9576 22.4508 89.6897 19.7381 89.6897 16.3851C89.6897 13.0592 92.001 10.3193 95.7066 10.3193C99.4177 10.3193 101.799 13.0538 101.799 16.3851ZM92.5761 16.3851C92.5761 18.1538 93.6395 19.8086 95.7392 19.8086C97.8388 19.8086 98.9023 18.1538 98.9023 16.3851C98.9023 14.6381 97.6761 12.9399 95.7392 12.9399C93.6612 12.9345 92.5761 14.6381 92.5761 16.3851Z" fill="#222222"/>
<path d="M23.4763 14.4101L31.9944 -0.135742H15.4683L6.98815 14.345H0.200806L8.71347 28.8909H25.2396L16.7595 14.4101H23.4763Z" fill="#222222"/>
</g>
<defs>
<clipPath id="clip0_18524_3960">
<rect width="102" height="28.7553" fill="white"/>
</clipPath>
</defs>
</svg>
